/* XPM */
static char * xpm_fluorescence_xpm[] = {
"32 32 357 2",
"  	c None",
". 	c #414140",
"+ 	c #59595A",
"@ 	c #656568",
"# 	c #8A8A96",
"$ 	c #9191AC",
"% 	c #8585AE",
"& 	c #7879AB",
"* 	c #6F71A7",
"= 	c #5A5A5B",
"- 	c #9494A6",
"; 	c #8182AF",
"> 	c #55579B",
", 	c #333589",
"' 	c #21237E",
") 	c #191B7A",
"! 	c #171979",
"~ 	c #888890",
"{ 	c #8A8AB2",
"] 	c #4B4D96",
"^ 	c #20227E",
"/ 	c #161878",
"( 	c #232580",
"_ 	c #404190",
": 	c #5A5CA0",
"< 	c #6A6BA9",
"[ 	c #9596A4",
"} 	c #7374AA",
"| 	c #2B2D85",
"1 	c #797AB1",
"2 	c #BBBCD8",
"3 	c #DEDEEC",
"4 	c #EDEDF5",
"5 	c #F0F0F7",
"6 	c #9797A6",
"7 	c #696AA6",
"8 	c #1B1D7B",
"9 	c #5E5FA1",
"0 	c #BFC0DA",
"a 	c #E4E4F0",
"b 	c #E7E7F1",
"c 	c #E5E5F0",
"d 	c #E4E4EF",
"e 	c #8E8E97",
"f 	c #6B6DAA",
"g 	c #CBCBE1",
"h 	c #D7D7E8",
"i 	c #D5D5E7",
"j 	c #6C6DAA",
"k 	c #8B8CB4",
"l 	c #2C2E85",
"m 	c #171978",
"n 	c #52549B",
"o 	c #BDBED9",
"p 	c #C6C6DE",
"q 	c #C4C4DD",
"r 	c #53549B",
"s 	c #9C9DB0",
"t 	c #4B4D97",
"u 	c #272982",
"v 	c #9697C3",
"w 	c #B7B8D6",
"x 	c #8A8CBB",
"y 	c #7A7DB1",
"z 	c #8384B2",
"A 	c #22247F",
"B 	c #484A95",
"C 	c #A5A6CB",
"D 	c #A7A7CC",
"E 	c #7477AB",
"F 	c #8488B4",
"G 	c #A1A4C6",
"H 	c #A2A5C6",
"I 	c #9A9BA8",
"J 	c #55579C",
"K 	c #181A79",
"L 	c #5B5DA0",
"M 	c #9B9CC5",
"N 	c #9899C3",
"O 	c #7173A7",
"P 	c #AAACC8",
"Q 	c #FBFCFD",
"R 	c #FDFEFE",
"S 	c #FDFDFE",
"T 	c #9A9BB8",
"U 	c #343589",
"V 	c #5A5C9F",
"W 	c #8C8DBC",
"X 	c #898ABA",
"Y 	c #6C6EA2",
"Z 	c #B1B2CA",
"` 	c #FEFEFE",
" .	c #FFFFFF",
"..	c #00CE00",
"+.	c #8A8BB5",
"@.	c #494B96",
"#.	c #7C7DB3",
"$.	c #7A7BB1",
"%.	c #67699E",
"&.	c #B7B9CC",
"*.	c #FEFEFF",
"=.	c #7A7CAF",
"-.	c #1C1E7C",
";.	c #1A1C7A",
">.	c #1F217D",
",.	c #3D3E8E",
"'.	c #7273AD",
").	c #6E6FAB",
"!.	c #61639A",
"~.	c #BEBFCF",
"{.	c #62639A",
"].	c #6B6DA9",
"^.	c #696AA8",
"/.	c #303287",
"(.	c #7273AB",
"_.	c #1A1C7B",
":.	c #242680",
"<.	c #313388",
"[.	c #6264A4",
"}.	c #7173AD",
"|.	c #5E6098",
"1.	c #C4C5D3",
"2.	c #5B5D96",
"3.	c #5D5FA1",
"4.	c #4A4C97",
"5.	c #1D1F7C",
"6.	c #191C7A",
"7.	c #1A1D7B",
"8.	c #7175AC",
"9.	c #19217D",
"0.	c #1A227D",
"a.	c #222A82",
"b.	c #2C3387",
"c.	c #424894",
"d.	c #676CA9",
"e.	c #666B9F",
"f.	c #CBCCD8",
"g.	c #CACCD8",
"h.	c #535994",
"i.	c #474D96",
"j.	c #252C83",
"k.	c #171F7C",
"l.	c #18207C",
"m.	c #7983B3",
"n.	c #192B82",
"o.	c #182B82",
"p.	c #213387",
"q.	c #2B3C8C",
"r.	c #354592",
"s.	c #48579C",
"t.	c #6671A3",
"u.	c #D4D6DF",
"v.	c #D0D2DD",
"w.	c #455291",
"x.	c #213487",
"y.	c #162981",
"z.	c #192C83",
"A.	c #8A97BD",
"B.	c #1E3B8B",
"C.	c #163487",
"D.	c #1F3C8B",
"E.	c #294591",
"F.	c #344E96",
"G.	c #3C559A",
"H.	c #586BA1",
"I.	c #DADDE5",
"J.	c #D4D7E1",
"K.	c #2F478C",
"L.	c #133185",
"M.	c #153386",
"N.	c #143286",
"O.	c #9FACC5",
"P.	c #2D5298",
"Q.	c #123C8B",
"R.	c #1D4590",
"S.	c #284E95",
"T.	c #32569A",
"U.	c #3B5E9F",
"V.	c #5773A8",
"W.	c #E0E4EB",
"X.	c #DADFE8",
"Y.	c #2B4F92",
"Z.	c #113B8A",
"`.	c #133C8B",
" +	c #123B8B",
".+	c #19418E",
"++	c #18408E",
"@+	c #AEB6C2",
"#+	c #4F76AC",
"$+	c #0F448F",
"%+	c #194C94",
"&+	c #26569A",
"*+	c #305E9F",
"=+	c #3965A3",
"-+	c #597EB0",
";+	c #E8EDF3",
">+	c #E1E7F0",
",+	c #2C5A9B",
"'+	c #1B4D95",
")+	c #5D80B3",
"!+	c #1E5096",
"~+	c #4E75AC",
"{+	c #81A1C4",
"]+	c #175599",
"^+	c #115196",
"/+	c #225D9E",
"(+	c #2F67A3",
"_+	c #386DA7",
":+	c #5684B5",
"<+	c #D6E2ED",
"[+	c #ECF2F7",
"}+	c #EEF3F8",
"|+	c #EDF2F7",
"1+	c #E2EBF3",
"2+	c #E0EAF2",
"3+	c #E2EAF3",
"4+	c #E4ECF4",
"5+	c #C8D8E7",
"6+	c #26619F",
"7+	c #0A4C93",
"8+	c #245E9E",
"9+	c #8CAACC",
"0+	c #6791BC",
"a+	c #165598",
"b+	c #AFC0CF",
"c+	c #427CB0",
"d+	c #0B5799",
"e+	c #165F9E",
"f+	c #2C6EA7",
"g+	c #3876AC",
"h+	c #457FB1",
"i+	c #5F91BC",
"j+	c #6B9AC2",
"k+	c #74A0C5",
"l+	c #7EA7C9",
"m+	c #84ABCC",
"n+	c #6595BF",
"o+	c #3E7AAE",
"p+	c #2B6EA7",
"q+	c #266BA5",
"r+	c #2369A4",
"s+	c #19619F",
"t+	c #4880B2",
"u+	c #B3CADF",
"v+	c #A6C2DA",
"w+	c #18619F",
"x+	c #417CAF",
"y+	c #8CB2CD",
"z+	c #1E6EA6",
"A+	c #0A629F",
"B+	c #1D6EA6",
"C+	c #357DB0",
"D+	c #4185B4",
"E+	c #4A8BB8",
"F+	c #5592BC",
"G+	c #6099C0",
"H+	c #6B9FC5",
"I+	c #76A7C9",
"J+	c #80ADCD",
"K+	c #7CAACB",
"L+	c #639AC1",
"M+	c #4A8AB7",
"N+	c #4083B3",
"O+	c #4788B6",
"P+	c #649AC1",
"Q+	c #99BDD6",
"R+	c #D0E1ED",
"S+	c #B8D2E4",
"T+	c #2F7AAD",
"U+	c #1C6DA6",
"V+	c #6CA5C7",
"W+	c #1170A7",
"X+	c #096CA4",
"Y+	c #1E78AC",
"Z+	c #3C8BB7",
"`+	c #4B93BC",
" @	c #5599C0",
".@	c #60A0C4",
"+@	c #6AA6C8",
"@@	c #75ADCC",
"#@	c #80B3D0",
"$@	c #8CBAD5",
"%@	c #98C1D9",
"&@	c #A1C7DC",
"*@	c #AACCE0",
"=@	c #B5D3E4",
"-@	c #C4DCE9",
";@	c #D0E3EE",
">@	c #AACDE0",
",@	c #3185B3",
"'@	c #0F6FA6",
")@	c #BACFD9",
"!@	c #5FA5C6",
"~@	c #0F79AC",
"{@	c #0675A9",
"]@	c #187FAF",
"^@	c #3A92BB",
"/@	c #539FC3",
"(@	c #60A7C8",
"_@	c #6AACCB",
":@	c #74B2CF",
"<@	c #7FB8D3",
"[@	c #8ABED7",
"}@	c #95C4DA",
"|@	c #A0CADE",
"1@	c #ACD1E2",
"2@	c #B8D8E6",
"3@	c #B6D7E6",
"4@	c #7BB7D2",
"5@	c #1F83B1",
"6@	c #0D78AB",
"7@	c #BCD3DD",
"8@	c #6AB1CD",
"9@	c #1988B4",
"0@	c #037DAD",
"a@	c #0B81B0",
"b@	c #258FB8",
"c@	c #45A0C3",
"d@	c #60ADCC",
"e@	c #71B6D1",
"f@	c #7FBDD5",
"g@	c #8AC3D9",
"h@	c #95C8DD",
"i@	c #9ACBDE",
"j@	c #95C9DD",
"k@	c #71B7D2",
"l@	c #3498BE",
"m@	c #0880AF",
"n@	c #1788B4",
"o@	c #8AC5D9",
"p@	c #3BA1C3",
"q@	c #0C8CB6",
"r@	c #0187B2",
"s@	c #0689B4",
"t@	c #1591B8",
"u@	c #2799BE",
"v@	c #39A2C3",
"w@	c #3EA5C5",
"x@	c #2D9DC0",
"y@	c #1792B9",
"z@	c #0489B3",
"A@	c #0A8BB5",
"B@	c #3AA1C3",
"C@	c #B7DAE4",
"D@	c #7DC5D9",
"E@	c #44ADCA",
"F@	c #1E9DC0",
"G@	c #0B95BA",
"H@	c #0392B8",
"I@	c #0091B8",
"J@	c #0292B8",
"K@	c #0995BA",
"L@	c #1D9DBF",
"M@	c #A5D8E4",
"N@	c #85CDDD",
"O@	c #70C5D9",
"P@	c #65C1D6",
"                                                                ",
"                          . + @ @ + .                           ",
"                    + # $ % & * * & % $ # +                     ",
"                = - ; > , ' ) ! ! ) ' , > ; - =                 ",
"              ~ { ] ^ / ( _ : < < : _ ( / ^ ] { ~               ",
"            [ } | / , 1 2 3 4 5 5 4 3 2 1 , / | } [             ",
"          6 7 ^ 8 9 0 a b c d d d d c b a 0 9 8 ^ 7 6           ",
"        e } ' 8 f g h i i i i i i i i i i h g j 8 ' } e         ",
"        k l m n o p q q q q q q q q q q q q p o r m l k         ",
"      s t m u v w x y y y y y y y y y y y y x w v u m t s       ",
"      z A m B C D E F G H H H H H H H H G F E D C B m A z       ",
"    I J K K L M N O P Q R S S S S S S R Q P O N M L K K J I     ",
"    T U K ) V W X Y Z `  . . . ....... .` Z Y X W V ) K U T     ",
"    +.( ) K @.#.$.%.&.*. . ........... .*.&.%.$.#.@.K ) ( +.    ",
"    =.-.;.>.,.'.).!.~. . . ........... . .~.{.].^./.K ) -.=.    ",
"    (._.8 :.<.[.}.|.1. . ........... . . .1.2.3.4.5.) 6.7.(.    ",
"    8.9.0.a.b.c.d.e.f. . ........... . . .g.h.i.j.k.l.l.9.8.    ",
"    m.n.o.p.q.r.s.t.u. . ......... . . . .v.w.x.y.y.y.y.z.m.    ",
"    A.B.C.D.E.F.G.H.I. . . ....... . . . .J.K.L.M.M.N.N.B.A.    ",
"    O.P.Q.R.S.T.U.V.W. . . ....... . . . .X.Y.Z.`. +.+++P.O.    ",
"    @+#+$+%+&+*+=+-+;+ . . . . . . . . . .>+,+$+$+'+)+!+~+@+    ",
"      {+]+^+/+(+_+:+<+[+[+}+|+1+2+3+1+1+4+5+6+7+8+9+0+a+{+      ",
"      b+c+d+e+f+g+h+i+j+k+l+m+n+o+p+q+q+q+r+s+t+u+v+w+x+b+      ",
"        y+z+A+B+C+D+E+F+G+H+I+J+K+L+M+N+O+P+Q+R+S+T+U+y+        ",
"          V+W+X+Y+Z+`+ @.@+@@@#@$@%@&@*@=@-@;@>@,@'@V+          ",
"          )@!@~@{@]@^@/@(@_@:@<@[@}@|@1@2@3@4@5@6@!@)@          ",
"            7@8@9@0@a@b@c@d@e@f@g@h@i@j@k@l@m@n@8@7@            ",
"                o@p@q@r@s@t@u@v@w@w@x@y@z@A@B@o@                ",
"                  C@D@E@F@G@H@I@I@J@K@L@E@D@C@                  ",
"                        M@N@O@P@P@O@N@M@                        ",
"                                                                ",
"                                                                "};
