/* XPM */
static char * xpm_disabled_fluorescence_xpm[] = {
"32 32 144 2",
"  	c None",
". 	c #404040",
"+ 	c #595959",
"@ 	c #666666",
"# 	c #909090",
"$ 	c #9E9E9E",
"% 	c #999999",
"& 	c #919191",
"* 	c #8B8B8B",
"= 	c #5A5A5A",
"- 	c #9C9C9C",
"; 	c #979797",
"> 	c #777777",
", 	c #5E5E5E",
"' 	c #4F4F4F",
") 	c #494949",
"! 	c #484848",
"~ 	c #8C8C8C",
"{ 	c #9D9D9D",
"] 	c #707070",
"^ 	c #474747",
"/ 	c #515151",
"( 	c #686868",
"_ 	c #7D7D7D",
": 	c #898989",
"< 	c #9B9B9B",
"[ 	c #8D8D8D",
"} 	c #585858",
"| 	c #959595",
"1 	c #C9C9C9",
"2 	c #E5E5E5",
"3 	c #F1F1F1",
"4 	c #F3F3F3",
"5 	c #868686",
"6 	c #4B4B4B",
"7 	c #7F7F7F",
"8 	c #CCCCCC",
"9 	c #EAEAEA",
"0 	c #ECECEC",
"a 	c #E9E9E9",
"b 	c #929292",
"c 	c #8E8E8E",
"d 	c #8A8A8A",
"e 	c #D6D6D6",
"f 	c #DFDFDF",
"g 	c #DEDEDE",
"h 	c #9F9F9F",
"i 	c #767676",
"j 	c #CBCBCB",
"k 	c #D2D2D2",
"l 	c #D0D0D0",
"m 	c #A5A5A5",
"n 	c #545454",
"o 	c #ACACAC",
"p 	c #C6C6C6",
"q 	c #A2A2A2",
"r 	c #9A9A9A",
"s 	c #505050",
"t 	c #6E6E6E",
"u 	c #B8B8B8",
"v 	c #B9B9B9",
"w 	c #8F8F8F",
"x 	c #B3B3B3",
"y 	c #B4B4B4",
"z 	c #A0A0A0",
"A 	c #787878",
"B 	c #B0B0B0",
"C 	c #ADADAD",
"D 	c #FCFCFC",
"E 	c #FDFDFD",
"F 	c #A8A8A8",
"G 	c #7C7C7C",
"H 	c #A4A4A4",
"I 	c #A1A1A1",
"J 	c #878787",
"K 	c #BDBDBD",
"L 	c #FEFEFE",
"M 	c #FFFFFF",
"N 	c #5AA65A",
"O 	c #6F6F6F",
"P 	c #828282",
"Q 	c #C1C1C1",
"R 	c #949494",
"S 	c #4C4C4C",
"T 	c #4A4A4A",
"U 	c #4E4E4E",
"V 	c #656565",
"W 	c #7E7E7E",
"X 	c #888888",
"Y 	c #5B5B5B",
"Z 	c #525252",
"` 	c #5C5C5C",
" .	c #838383",
"..	c #7B7B7B",
"+.	c #6B6B6B",
"@.	c #D1D1D1",
"#.	c #737373",
"$.	c #4D4D4D",
"%.	c #636363",
"&.	c #727272",
"*.	c #848484",
"=.	c #D9D9D9",
"-.	c #A3A3A3",
";.	c #555555",
">.	c #5D5D5D",
",.	c #DADADA",
"'.	c #B1B1B1",
").	c #626262",
"!.	c #565656",
"~.	c #6D6D6D",
"{.	c #E1E1E1",
"].	c #535353",
"^.	c #B7B7B7",
"/.	c #606060",
"(.	c #676767",
"_.	c #EDEDED",
":.	c #E8E8E8",
"<.	c #696969",
"[.	c #858585",
"}.	c #F2F2F2",
"|.	c #D7D7D7",
"1.	c #616161",
"2.	c #575757",
"3.	c #BEBEBE",
"4.	c #969696",
"5.	c #C0C0C0",
"6.	c #ABABAB",
"7.	c #7A7A7A",
"8.	c #818181",
"9.	c #989898",
"0.	c #A6A6A6",
"a.	c #808080",
"b.	c #797979",
"c.	c #CECECE",
"d.	c #C5C5C5",
"e.	c #A9A9A9",
"f.	c #BFBFBF",
"g.	c #C7C7C7",
"h.	c #CFCFCF",
"i.	c #AAAAAA",
"j.	c #BCBCBC",
"k.	c #5F5F5F",
"l.	c #CDCDCD",
"m.	c #C4C4C4",
"                                                                ",
"                          . + @ @ + .                           ",
"                    + # $ % & * * & % $ # +                     ",
"                = - ; > , ' ) ! ! ) ' , > ; - =                 ",
"              ~ { ] ' ^ / ( _ : : _ ( / ^ ' ] { ~               ",
"            < [ } ^ , | 1 2 3 4 4 3 2 1 | , ^ } [ <             ",
"          { 5 ' 6 7 8 9 0 9 a a a a 9 0 9 8 7 6 ' 5 {           ",
"        b c ' 6 d e f g g g g g g g g g g f e * 6 ' c b         ",
"        h } ^ i j k l l l l l l l l l l l l k j > ^ } h         ",
"      m ] ^ n o p q | | | | | | | | | | | | q p o n ^ ] m       ",
"      r s ^ t u v w - x y y y y y y y y x - w v u t ^ s r       ",
"    z A ! ! _ B C ~ v D E E E E E E E E D v ~ C B _ ! ! A z     ",
"    F , ! ) G H I J K L M M M M N N N M L K J I H G ) ! , F     ",
"    $ / ) ! O ; | P Q L M M N N N N N M L Q P | ; O ! ) / $     ",
"    R S T U V w ~ _ p M M M N N N N N M M p W d X Y ! ) S R     ",
"    c T 6 Z `  .w ..j M M N N N N N M M M j A 7 ] S ) ) T c     ",
"    c 6 6 Z + +.X P @.M M N N N N N M M M @.#.t n ) T T 6 c     ",
"    | $.$.n Y %.&.*.=.M M N N N N M M M M e +.n 6 6 6 6 U |     ",
"    -.n U ;.>.V +.G f M M M N N N M M M M ,.>.S $.$.$.$.n -.    ",
"    '.).U !., @ ~.7 2 M M M N N N M M M M {., $.' U ].].).'.    ",
"    ^._ ' !./.(.t *._.M M M M M M M M M M :.%.' ' } X = G ^.    ",
"      q } ]./.<.O [.{.3 3 4 }.9 a 9 9 9 0 |.).U 1.o & 2.q       ",
"      3.A Z = <.&...[ 4.- -.F b i <.V V V %.` _ 1 5.Y > 3.      ",
"        6.).n 1.&.7.8.X # 9.h 0.-.b a.b.W b ^.g c.t 1.6.        ",
"          % ` !.V b. .d b % z F B u 3.d.8 e f d.&.= %           ",
"          1 b >.2.%.7.* R r I e.B ^.f.g.h.c.0.( ` b 1           ",
"            8 < @ } >.t *.4.I i.'.v j.v I b.Y V < 8             ",
"                '.W 1.+ >.@ &.W 8.8.i ( Y k.W '.                ",
"                  l.6.5 O ).>.` ` >.1.t 5 6.l.                  ",
"                        m.B H { { H B m.                        ",
"                                                                ",
"                                                                "};
