/* XPM */
static char * xpm_hover_fluorescence_xpm[] = {
"32 32 304 2",
"  	c None",
". 	c #3C3E3F",
"+ 	c #595756",
"@ 	c #696361",
"# 	c #A48C82",
"$ 	c #D19B85",
"% 	c #E79675",
"& 	c #F18E66",
"* 	c #F4895D",
"= 	c #5A5756",
"- 	c #BE998A",
"; 	c #ED9470",
"> 	c #FD763F",
", 	c #FF6425",
"' 	c #FF4F08",
") 	c #FF4900",
"! 	c #FF4800",
"~ 	c #9A8881",
"{ 	c #E99A7A",
"] 	c #FE6F35",
"^ 	c #FF5109",
"/ 	c #FF6A2C",
"( 	c #FF7E48",
"_ 	c #FF8959",
": 	c #B6998D",
"< 	c #F78C60",
"[ 	c #FF5713",
"} 	c #FF9C73",
"| 	c #FFCDB9",
"1 	c #FFE6DC",
"2 	c #FFF1EB",
"3 	c #FFF4EF",
"4 	c #B89A8E",
"5 	c #F98555",
"6 	c #FF4B01",
"7 	c #FF8D5F",
"8 	c #FFD4C2",
"9 	c #FFEBE2",
"0 	c #FFECE4",
"a 	c #FFEAE2",
"b 	c #FFEAE1",
"c 	c #A18E87",
"d 	c #FF9E75",
"e 	c #FFDBCC",
"f 	c #FFDFD2",
"g 	c #FFDED0",
"h 	c #FF8B5B",
"i 	c #EC9C7C",
"j 	c #FF4700",
"k 	c #FF8D5E",
"l 	c #FFD1BE",
"m 	c #FFD2BF",
"n 	c #C9A292",
"o 	c #FFBBA0",
"p 	c #FFC6AE",
"q 	c #FFA27C",
"r 	c #F79168",
"s 	c #F19772",
"t 	c #FF5009",
"u 	c #FF8554",
"v 	c #FFBCA0",
"w 	c #FFB99C",
"x 	c #FFB698",
"y 	c #FFB799",
"z 	c #B99D92",
"A 	c #FD7740",
"B 	c #FF9366",
"C 	c #FFB090",
"D 	c #FFAE8C",
"E 	c #FFBDA1",
"F 	c #FFFCFA",
"G 	c #FFFEFD",
"H 	c #DFA58E",
"I 	c #FF5E1C",
"J 	c #FF8E60",
"K 	c #FFA47F",
"L 	c #FFA27B",
"M 	c #FF8B5C",
"N 	c #FFC0A5",
"O 	c #FFFFFF",
"P 	c #00FF00",
"Q 	c #EF9C79",
"R 	c #FF7F4B",
"S 	c #FF986E",
"T 	c #FF966B",
"U 	c #FF8A5A",
"V 	c #FFFEFE",
"W 	c #FF4C02",
"X 	c #FF4A00",
"Y 	c #FF4E06",
"Z 	c #FF7137",
"` 	c #FF8C5C",
" .	c #FF824F",
"..	c #D9C3B6",
"+.	c #FF682B",
"@.	c #F98B5F",
"#.	c #FF510A",
"$.	c #FF6121",
"%.	c #FF7841",
"&.	c #FF520B",
"*.	c #F98C5F",
"=.	c #FF4B00",
"-.	c #FF4C01",
";.	c #FF530B",
">.	c #FF5A16",
",.	c #FF7035",
"'.	c #FF8A59",
").	c #FFD5C4",
"!.	c #FF7238",
"~.	c #FF5B16",
"{.	c #F89469",
"].	c #FF4F02",
"^.	c #FF4E01",
"/.	c #FF550B",
"(.	c #FF5D16",
"_.	c #FF6522",
":.	c #FF783C",
"<.	c #FFDDCF",
"[.	c #FFD7C7",
"}.	c #FF4D00",
"|.	c #F4A17C",
"1.	c #FF5609",
"2.	c #FF5001",
"3.	c #FF570B",
"4.	c #FF5F16",
"5.	c #FF6721",
"6.	c #FF6E2B",
"7.	c #FF834D",
"8.	c #DEDAD6",
"9.	c #FF5F17",
"0.	c #FF4E00",
"a.	c #FF4F00",
"b.	c #E9B095",
"c.	c #FF651B",
"d.	c #FF5200",
"e.	c #FF5A0B",
"f.	c #FF6116",
"g.	c #FF6921",
"h.	c #FF702B",
"i.	c #FF854A",
"j.	c #FFE7DD",
"k.	c #FFE5DA",
"l.	c #FF5100",
"m.	c #FF5708",
"n.	c #FF5605",
"o.	c #D2B5A7",
"p.	c #FE7F40",
"q.	c #FF5400",
"r.	c #FF5B08",
"s.	c #FF6416",
"t.	c #FF6B21",
"u.	c #FF712A",
"v.	c #FF894E",
"w.	c #FFEDE5",
"x.	c #FFE8DD",
"y.	c #FF671B",
"z.	c #FF5C0C",
"A.	c #FF8B51",
"B.	c #FF5E0E",
"C.	c #FE7F3F",
"D.	c #F9A276",
"E.	c #FF5D09",
"F.	c #FF5902",
"G.	c #FF6514",
"H.	c #FF6E22",
"I.	c #FF742C",
"J.	c #FF894B",
"K.	c #FFE0CE",
"L.	c #FFF2EB",
"M.	c #FFF4ED",
"N.	c #FFECE3",
"O.	c #E7D1C2",
"P.	c #FF6718",
"Q.	c #FF5500",
"R.	c #FF6616",
"S.	c #FFAE84",
"T.	c #FF955E",
"U.	c #FF5C08",
"V.	c #E6BDA7",
"W.	c #FF7C35",
"X.	c #FF5800",
"Y.	c #FF600A",
"Z.	c #FF6F20",
"`.	c #FF772D",
" +	c #FF813D",
".+	c #FF945A",
"++	c #FF9C66",
"@+	c #FF9F6A",
"#+	c #FFA573",
"$+	c #FFAB7F",
"%+	c #FF7A31",
"&+	c #FF6816",
"*+	c #FF620D",
"=+	c #FF823E",
"-+	c #FFCBAE",
";+	c #FFC2A1",
">+	c #FF7C34",
",+	c #F8AD82",
"'+	c #FF6813",
")+	c #FF5C00",
"!+	c #FF6812",
"~+	c #FF782C",
"{+	c #FF8038",
"]+	c #FF8743",
"^+	c #FF8D4C",
"/+	c #FF9558",
"(+	c #FF9D65",
"_+	c #FFA571",
":+	c #FFAB7B",
"<+	c #FFA978",
"[+	c #FF965A",
"}+	c #FF8540",
"|+	c #FF7F37",
"1+	c #FF833D",
"2+	c #FF975D",
"3+	c #FFBB94",
"4+	c #FFD0B5",
"5+	c #FF7426",
"6+	c #FF6712",
"7+	c #FD9C62",
"8+	c #FF6408",
"9+	c #FF5F00",
"0+	c #FF6D15",
"a+	c #FF8035",
"b+	c #FF8A44",
"c+	c #FF904E",
"d+	c #FF975A",
"e+	c #FF9E65",
"f+	c #FFA570",
"g+	c #FFAD7B",
"h+	c #FFB487",
"i+	c #FFBC94",
"j+	c #FFC29D",
"k+	c #FFC8A6",
"l+	c #FFCFB2",
"m+	c #FFD9C1",
"n+	c #FFE1CE",
"o+	c #FFC8A7",
"p+	c #FF792A",
"q+	c #FF6207",
"r+	c #E9C8B4",
"s+	c #FE9656",
"t+	c #FF6608",
"u+	c #FF6100",
"v+	c #FF6C11",
"w+	c #FF8234",
"x+	c #FF924E",
"y+	c #FF9A5B",
"z+	c #FFA065",
"A+	c #FFA770",
"B+	c #FFAE7B",
"C+	c #FFB586",
"D+	c #FFBC92",
"E+	c #FFC39D",
"F+	c #FFCBAA",
"G+	c #FFD2B6",
"H+	c #FFD1B4",
"I+	c #FFAC77",
"J+	c #FF7019",
"K+	c #FF6507",
"L+	c #ECCCB7",
"M+	c #FE9F63",
"N+	c #FF7013",
"O+	c #FF6200",
"P+	c #FF6705",
"Q+	c #FF771F",
"R+	c #FF8C41",
"S+	c #FF9C5C",
"T+	c #FFA76E",
"U+	c #FFAF7C",
"V+	c #FFB687",
"W+	c #FFBD92",
"X+	c #FFC098",
"Y+	c #FFBE93",
"Z+	c #FF8130",
"`+	c #FF6604",
" @	c #FF6E12",
".@	c #FCB484",
"+@	c #FF8635",
"@@	c #FF6B08",
"#@	c #FF6500",
"$@	c #FF6803",
"%@	c #FF7111",
"&@	c #FF7C23",
"*@	c #FF8736",
"=@	c #FF8B3C",
"-@	c #FF802A",
";@	c #FF7213",
">@	c #FF6701",
",@	c #FF6A07",
"'@	c #F6CEB2",
")@	c #FDAE78",
"!@	c #FF8E40",
"~@	c #FF791B",
"{@	c #FF6E08",
"]@	c #FF6901",
"^@	c #FF6800",
"/@	c #FF6900",
"(@	c #FF6D07",
"_@	c #FF781A",
":@	c #FBC6A0",
"<@	c #FEB581",
"[@	c #FEA96C",
"}@	c #FFA361",
"                                                                ",
"                          . + @ @ + .                           ",
"                    + # $ % & * * & % $ # +                     ",
"                = - ; > , ' ) ! ! ) ' , > ; - =                 ",
"              ~ { ] ' ! ^ / ( _ _ ( / ^ ! ' ] { ~               ",
"            : < [ ! , } | 1 2 3 3 2 1 | } , ! [ < :             ",
"          4 5 ' 6 7 8 9 0 a b b b b a 0 9 8 7 6 ' 5 4           ",
"        c < ' 6 d e f g g g g g g g g g g f e h 6 ' < c         ",
"        i [ j k l m l l l l l l l l l l l l m l k j [ i         ",
"      n ] j , o p q r r r r r r r r r r r r q p o , j ] n       ",
"      s t j u v w < s x y y y y y y y y x s < w v u j t s       ",
"    z A ! ! B C D * E F G G G G G G G G F E * D C B ! ! A z     ",
"    H I ! ) J K L M N G O O O O P P P O G N M L K J ) ! I H     ",
"    Q ^ ) ! R S T U p V O O P P P P P O V p U T S R ! ) ^ Q     ",
"    r W X Y Z B `  ...O O O P P P P P O O ..U d ` +.! ) W r     ",
"    @.X 6 #.$.U B 7 l O O P P P P P O O O l B R %.&.) X X @.    ",
"    *.=.-.;.>.,.'.5 e O O P P P P P O O O ).> !.~.X =.=.=.*.    ",
"    {.].^./.(._.:.'.<.O O P P P P O O O O [.!./.}.}.}.}.].{.    ",
"    |.1.2.3.4.5.6.7.8.O O O P P P O O O O <.9.0.a.a.a.a.1.|.    ",
"    b.c.d.e.f.g.h.i.j.O O O P P P O O O O k.f.l.d.l.m.n.c.b.    ",
"    o.p.q.r.s.t.u.v.w.O O O O O O O O O O x.y.q.q.z.A.B.C.o.    ",
"      D.E.F.G.H.I.J.K.L.L.M.L.N.N.N.N.N.N.O.P.Q.R.S.T.U.D.      ",
"      V.W.X.Y.Z.`. +.+++@+#+$+.+%+Z.Z.Z.Z.&+*+=+-+;+*+>+V.      ",
"        ,+'+)+!+~+{+]+^+/+(+_+:+<+[+}+|+1+2+3+K.4+5+6+,+        ",
"          7+8+9+0+a+b+c+d+e+f+g+h+i+j+k+l+m+n+o+p+q+7+          ",
"          r+s+t+u+v+w+x+y+z+A+B+C+D+E+F+G+H+I+J+K+s+r+          ",
"            L+M+N+O+P+Q+R+S+T+U+V+W+X+Y+T+Z+`+ @M+L+            ",
"                .@+@@@#@$@%@&@*@=@=@-@;@>@,@+@.@                ",
"                  '@)@!@~@{@]@^@^@/@(@_@!@)@'@                  ",
"                        :@<@[@}@}@[@<@:@                        ",
"                                                                ",
"                                                                "};
